<?xml version="1.0" encoding="UTF-8"?>
<svg version="1.1" xmlns="http://www.w3.org/2000/svg" width="500" height="500">
<path d="M0 0 C165 0 330 0 500 0 C500 165 500 330 500 500 C335 500 170 500 0 500 C0 335 0 170 0 0 Z " fill="#FEFEFE" transform="translate(0,0)"/>
<path d="M0 0 C1.67418932 1.67418932 1.14196647 3.72449306 1.15771484 6.02294922 C1.16797699 7.09431122 1.17823914 8.16567322 1.18881226 9.26950073 C1.19611359 10.43611237 1.20341492 11.602724 1.2109375 12.8046875 C1.2390035 15.24870464 1.26766795 17.69271498 1.296875 20.13671875 C1.33819269 24.01025218 1.3750588 27.88365809 1.40136719 31.75732422 C1.42888849 35.48171632 1.47476112 39.20552003 1.5234375 42.9296875 C1.5283168 44.67353226 1.5283168 44.67353226 1.53329468 46.4526062 C1.54986115 47.53027252 1.56642761 48.60793884 1.58349609 49.71826172 C1.59158295 50.66788788 1.5996698 51.61751404 1.60800171 52.59591675 C1.76538202 55.08094709 1.76538202 55.08094709 3.58853149 56.51760864 C4.0543161 57.00679779 4.52010071 57.49598694 5 58 C4.67 59.65 4.34 61.3 4 63 C-3.59 63 -11.18 63 -19 63 C-19.33 61.35 -19.66 59.7 -20 58 C-19.53166748 57.53875732 -19.06333496 57.07751465 -18.58081055 56.60229492 C-16.68855181 55.0142166 -16.68855181 55.0142166 -16.65942383 51.99731445 C-16.6829895 50.19846802 -16.6829895 50.19846802 -16.70703125 48.36328125 C-16.7215332 46.41518555 -16.7215332 46.41518555 -16.73632812 44.42773438 C-16.76139415 43.05598361 -16.78678899 41.68423882 -16.8125 40.3125 C-16.8275498 38.92905076 -16.8412377 37.54558599 -16.85351562 36.16210938 C-16.88892777 32.77434793 -16.93831946 29.38736861 -17 26 C-21.62764454 29.99766184 -23.49052563 33.82697142 -25.55859375 39.51953125 C-25.87022964 40.33693283 -26.18186554 41.15433441 -26.50294495 41.99650574 C-27.49397103 44.59719936 -28.46771912 47.20381599 -29.4375 49.8125 C-30.71304383 53.24150136 -32.00577446 56.66331373 -33.30859375 60.08203125 C-33.59004745 60.85625931 -33.87150116 61.63048737 -34.16148376 62.42817688 C-37.20050237 70.39790812 -41.5536172 77.04339219 -49.1875 81.1875 C-54.72552729 82.78737455 -59.29196549 82.90060001 -64.4375 80.1875 C-67.711994 77.39220025 -68.90374708 75.88231842 -69.375 71.5625 C-69 68 -69 68 -67.375 65.5625 C-64.397402 63.60355395 -62.49644963 63.68214094 -59 64 C-55.125 70.75 -55.125 70.75 -54 73 C-52.33388095 73.042721 -50.66617115 73.04063832 -49 73 C-47.58716268 71.80827206 -47.58716268 71.80827206 -47.78222656 68.38330078 C-47.84095286 64.14286137 -48.88347212 60.8143157 -50.484375 56.8671875 C-50.74124084 56.22685577 -50.99810669 55.58652405 -51.26275635 54.92678833 C-51.80436471 53.58476131 -52.35261227 52.24539598 -52.90722656 50.90869141 C-53.74841044 48.87883575 -54.56711946 46.84099542 -55.3828125 44.80078125 C-58.82645307 35.91612388 -58.82645307 35.91612388 -64 28 C-66.804777 27.27895185 -66.804777 27.27895185 -69.75 27.625 C-70.73484375 27.67914063 -71.7196875 27.73328125 -72.734375 27.7890625 C-73.48203125 27.85867187 -74.2296875 27.92828125 -75 28 C-74.86152362 31.62532066 -74.71297357 35.25015904 -74.5625 38.875 C-74.52318359 39.90753906 -74.48386719 40.94007813 -74.44335938 42.00390625 C-74.40146484 42.99003906 -74.35957031 43.97617188 -74.31640625 44.9921875 C-74.27974854 45.90339355 -74.24309082 46.81459961 -74.20532227 47.75341797 C-74.13422935 50.03483481 -74.13422935 50.03483481 -73 52 C-67.06 51.505 -67.06 51.505 -61 51 C-62.09603636 56.48018181 -62.87991241 57.52081492 -67 61 C-71.17368484 63.75083773 -74.81993355 64.64650973 -79.75 64.48828125 C-83.76504955 63.61695973 -86.42838773 61.10588074 -89 58 C-91.17552118 54.53654264 -91.23349428 51.75039336 -91.1953125 47.703125 C-91.18886719 46.49785156 -91.18242187 45.29257813 -91.17578125 44.05078125 C-91.15064453 42.16939453 -91.15064453 42.16939453 -91.125 40.25 C-91.11597656 38.98027344 -91.10695313 37.71054688 -91.09765625 36.40234375 C-91.07409005 33.26803907 -91.04118832 30.13411459 -91 27 C-92.32 27 -93.64 27 -95 27 C-94.938125 27.928125 -94.87625 28.85625 -94.8125 29.8125 C-95 33 -95 33 -96.0625 34.9375 C-98 36 -98 36 -101.3125 36.1875 C-106.42684453 34.54050769 -108.239317 31.43934006 -111 27 C-112.65 27.33 -114.3 27.66 -116 28 C-116.12213894 30.34148231 -116.12213894 30.34148231 -115 33 C-111.1065585 36.30383417 -106.31279614 38.35207876 -101.75 40.5625 C-94.99271375 43.92035147 -94.99271375 43.92035147 -93 47 C-92.51094976 50.84253763 -92.64376179 53.21627595 -94.25 56.75 C-97.70169417 61.1878925 -101.46874315 63.13895832 -107 64 C-115.98869217 64.83006149 -123.52568602 64.4821931 -131 59 C-131.66 58.01 -132.32 57.02 -133 56 C-135.78824086 57.33215952 -138.3131775 58.83918567 -140.875 60.5625 C-144.31301726 62.71521799 -146.88621435 63.74813557 -151 64 C-151.68964844 64.061875 -152.37929687 64.12375 -153.08984375 64.1875 C-158.9272632 64.50681183 -163.2065175 63.39102255 -168 60 C-172.61989545 55.82567823 -174.64690735 51.37823774 -175.2890625 45.234375 C-175.62963674 38.10024095 -174.80619221 33.38293527 -170 28 C-164.38719189 22.38719189 -160.24340221 19.71368839 -152.125 19.6875 C-150.93132812 19.67074219 -149.73765625 19.65398437 -148.5078125 19.63671875 C-143.9573272 20.10798282 -140.64916756 21.42370263 -137.3203125 24.60546875 C-136.21354167 26.0703125 -135.10677083 27.53515625 -134 29 C-132.948125 27.6078125 -132.948125 27.6078125 -131.875 26.1875 C-129.09352433 22.50613515 -125.56786191 20.37661565 -120.95751953 19.70043945 C-118.67208578 19.56118272 -116.41438889 19.5414789 -114.125 19.5625 C-112.97837891 19.5325293 -112.97837891 19.5325293 -111.80859375 19.50195312 C-105.89433647 19.50697372 -102.11574864 21.05757054 -97 24 C-95.8553125 22.4840625 -95.8553125 22.4840625 -94.6875 20.9375 C-90.63733353 16.21230578 -85.60329563 12.68338321 -80 10 C-78.35 10 -76.7 10 -75 10 C-75 13.3 -75 16.6 -75 20 C-64.11 20 -53.22 20 -42 20 C-41.67 21.65 -41.34 23.3 -41 25 C-41.66 25.66 -42.32 26.32 -43 27 C-42.8424989 34.08754938 -39.63951156 40.52296978 -37 47 C-36.73445312 46.39671875 -36.46890625 45.7934375 -36.1953125 45.171875 C-35.84210938 44.37265625 -35.48890625 43.5734375 -35.125 42.75 C-34.60292969 41.56664062 -34.60292969 41.56664062 -34.0703125 40.359375 C-33.39023187 38.86021916 -32.66393318 37.38055975 -31.87890625 35.93359375 C-30.52756308 32.96063877 -30.81829098 30.21019262 -31 27 C-31.33 26.67 -31.66 26.34 -32 26 C-32.125 23.5 -32.125 23.5 -32 21 C-31 20 -31 20 -28.12890625 19.8671875 C-26.95199219 19.86976563 -25.77507812 19.87234375 -24.5625 19.875 C-22.80099609 19.87113281 -22.80099609 19.87113281 -21.00390625 19.8671875 C-18 20 -18 20 -16 21 C-16.08746284 19.56138706 -16.19565348 18.12402492 -16.3125 16.6875 C-16.39951172 15.48673828 -16.39951172 15.48673828 -16.48828125 14.26171875 C-17.08206694 11.63727666 -17.95780294 10.69179328 -20 9 C-18.95743616 6.02487879 -18.17858502 5.10159028 -15.390625 3.515625 C-14.35421875 3.09796875 -13.3178125 2.6803125 -12.25 2.25 C-11.22390625 1.82203125 -10.1978125 1.3940625 -9.140625 0.953125 C-5.89692649 -0.03128102 -3.36851694 -0.25608608 0 0 Z " fill="#080808" transform="translate(270,191)"/>
<path d="M0 0 C0.01030746 0.65510559 0.02061493 1.31021118 0.03123474 1.98516846 C0.13934424 8.79831839 0.25393883 15.61133727 0.37231445 22.42431641 C0.41564899 24.96758281 0.45732513 27.51087802 0.49731445 30.05419922 C0.55505258 33.70809619 0.61873725 37.36184831 0.68359375 41.015625 C0.70030624 42.15429016 0.71701874 43.29295532 0.73423767 44.46612549 C0.75418289 45.52692322 0.77412811 46.58772095 0.79467773 47.68066406 C0.81799416 49.07964935 0.81799416 49.07964935 0.84178162 50.50689697 C0.98753208 52.80353862 1.3564033 54.79701127 2 57 C4.11889286 55.29422462 4.93058831 54.41350161 5.38818359 51.6875 C5.39156738 50.800625 5.39495117 49.91375 5.3984375 49 C5.40230469 48.030625 5.40617187 47.06125 5.41015625 46.0625 C5.39855469 45.051875 5.38695313 44.04125 5.375 43 C5.38660156 41.989375 5.39820312 40.97875 5.41015625 39.9375 C5.40435547 38.4834375 5.40435547 38.4834375 5.3984375 37 C5.39505371 36.113125 5.39166992 35.22625 5.38818359 34.3125 C4.92538005 31.55547159 4.04195434 30.81522049 2 29 C1.9609375 26.984375 1.9609375 26.984375 3 25 C5.4765625 23.515625 5.4765625 23.515625 8.625 22.25 C9.64851563 21.82203125 10.67203125 21.3940625 11.7265625 20.953125 C15.30295032 19.91179012 18.29464767 19.93301926 22 20 C22.029729 21.47593628 22.029729 21.47593628 22.06005859 22.98168945 C22.13613987 26.63282839 22.224853 30.28357009 22.31738281 33.93432617 C22.35566221 35.51432451 22.39051697 37.09440969 22.421875 38.67456055 C22.46754876 40.94611645 22.52553784 43.21707509 22.5859375 45.48828125 C22.59748871 46.19463211 22.60903992 46.90098297 22.62094116 47.6287384 C22.73071048 51.27741393 22.92142364 52.88213546 25 56 C25.66 56 26.32 56 27 56 C28.36839363 53.26321275 28.21634818 50.95735576 28.31640625 47.8984375 C28.37924805 46.08085937 28.37924805 46.08085937 28.44335938 44.2265625 C28.48267578 42.95554688 28.52199219 41.68453125 28.5625 40.375 C28.62727539 38.456875 28.62727539 38.456875 28.69335938 36.5 C28.79969886 33.33344652 28.90172833 30.16681247 29 27 C27.35 27 25.7 27 24 27 C23.875 24.625 23.875 24.625 24 22 C24.66 21.34 25.32 20.68 26 20 C26.99 20 27.98 20 29 20 C29.04125 18.865625 29.0825 17.73125 29.125 16.5625 C29.81604605 11.09252987 32.44191291 7.11900905 36 3 C40.29627257 -0.22220443 44.42413242 -0.51299546 49.65625 -0.36328125 C52.99670442 0.15448918 54.75236916 1.5348565 57 4 C58.52491998 7.04983996 58.23562548 9.6423369 58 13 C56.46046316 15.51187589 55.43871419 15.87300379 52.625 16.6875 C49.31224446 15.81987355 49.06780343 14.88082512 47.375 12 C46.99085937 11.2575 46.60671875 10.515 46.2109375 9.75 C45.81132813 9.1725 45.41171875 8.595 45 8 C44.01 8 43.02 8 42 8 C41.9729957 9.45823212 41.95360213 10.91660675 41.9375 12.375 C41.92589844 13.18710938 41.91429687 13.99921875 41.90234375 14.8359375 C41.85533666 17.04937142 41.85533666 17.04937142 43 19 C45.58605332 19.4683265 45.58605332 19.4683265 48.5625 19.625 C50.08037109 19.73714844 50.08037109 19.73714844 51.62890625 19.8515625 C52.41136719 19.90054688 53.19382812 19.94953125 54 20 C54.625 22.3125 54.625 22.3125 55 25 C54.01 26.485 54.01 26.485 53 28 C51.0546875 28.29296875 51.0546875 28.29296875 48.875 28.1875 C47.59625 28.125625 46.3175 28.06375 45 28 C45.02283754 32.06373807 45.10019964 36.12467576 45.1875 40.1875 C45.19330078 41.33798828 45.19910156 42.48847656 45.20507812 43.67382812 C45.20598583 50.42928085 45.20598583 50.42928085 48.61328125 55.98828125 C49.40089844 56.65214844 50.18851562 57.31601563 51 58 C50.67 59.65 50.34 61.3 50 63 C27.23 63 4.46 63 -19 63 C-19.33 61.35 -19.66 59.7 -20 58 C-19.53384277 57.42701172 -19.06768555 56.85402344 -18.58740234 56.26367188 C-16.08165259 52.69041568 -16.57160404 49.04181067 -16.6015625 44.78125 C-16.59869232 43.88635864 -16.59582214 42.99146729 -16.59286499 42.06945801 C-16.5908261 40.17992519 -16.59634371 38.29037119 -16.60888672 36.40087891 C-16.624943 33.51026165 -16.60903224 30.62104257 -16.58984375 27.73046875 C-16.59182621 25.89322608 -16.59566995 24.05598429 -16.6015625 22.21875 C-16.59548981 21.35511841 -16.58941711 20.49148682 -16.5831604 19.60168457 C-16.62154388 14.77994755 -16.62154388 14.77994755 -18.52490234 10.42382812 C-19.01168457 9.95396484 -19.4984668 9.48410156 -20 9 C-18.95743616 6.02487879 -18.17858502 5.10159028 -15.390625 3.515625 C-14.35421875 3.09796875 -13.3178125 2.6803125 -12.25 2.25 C-11.22390625 1.82203125 -10.1978125 1.3940625 -9.140625 0.953125 C-5.90086272 -0.03008644 -3.36002807 -0.07139036 0 0 Z " fill="#050505" transform="translate(44,191)"/>
<path d="M0 0 C0.99 0.495 0.99 0.495 2 1 C1.195625 1.61875 0.39125 2.2375 -0.4375 2.875 C-3.70030841 6.05555273 -3.59749687 9.31529389 -3.6640625 13.6953125 C-4 16 -4 16 -5.31640625 17.79296875 C-7 19 -7 19 -10.3125 19.1875 C-15.42684453 17.54050769 -17.239317 14.43934006 -20 10 C-21.65 10.33 -23.3 10.66 -25 11 C-25.12213894 13.34148231 -25.12213894 13.34148231 -24 16 C-20.1065585 19.30383417 -15.31279614 21.35207876 -10.75 23.5625 C-3.99271375 26.92035147 -3.99271375 26.92035147 -2 30 C-1.51094976 33.84253763 -1.64376179 36.21627595 -3.25 39.75 C-6.70169417 44.1878925 -10.46874315 46.13895832 -16 47 C-24.98869217 47.83006149 -32.52568602 47.4821931 -40 42 C-40.66 41.01 -41.32 40.02 -42 39 C-44.78824086 40.33215952 -47.3131775 41.83918567 -49.875 43.5625 C-53.31301726 45.71521799 -55.88621435 46.74813557 -60 47 C-60.68964844 47.061875 -61.37929687 47.12375 -62.08984375 47.1875 C-67.9272632 47.50681183 -72.2065175 46.39102255 -77 43 C-81.61989545 38.82567823 -83.64690735 34.37823774 -84.2890625 28.234375 C-84.62963674 21.10024095 -83.80619221 16.38293527 -79 11 C-73.38719189 5.38719189 -69.24340221 2.71368839 -61.125 2.6875 C-59.93132812 2.67074219 -58.73765625 2.65398437 -57.5078125 2.63671875 C-52.9573272 3.10798282 -49.64916756 4.42370263 -46.3203125 7.60546875 C-45.21354167 9.0703125 -44.10677083 10.53515625 -43 12 C-41.948125 10.6078125 -41.948125 10.6078125 -40.875 9.1875 C-38.09352433 5.50613515 -34.56786191 3.37661565 -29.95751953 2.70043945 C-27.67208578 2.56118272 -25.41438889 2.5414789 -23.125 2.5625 C-21.97837891 2.5325293 -21.97837891 2.5325293 -20.80859375 2.50195312 C-14.89433647 2.50697372 -11.11574864 4.05757054 -6 7 C-4.02 4.69 -2.04 2.38 0 0 Z " fill="#060606" transform="translate(179,208)"/>
<path d="M0 0 C4.31633181 3.18586395 7.91120739 6.79612218 9.625 11.9375 C9.80312624 14.6303496 9.71227698 17.23191368 9.625 19.9375 C6.44052557 23.12197443 -5.14844911 21.91522439 -9.81640625 22 C-12.33684947 22 -14.85503506 21.98465111 -17.375 21.9375 C-16.00683647 25.17788731 -14.87907288 27.50543753 -12.1875 29.8125 C-8.50834478 31.28416209 -5.2456261 31.63524095 -1.375 30.9375 C1.11726022 29.79294312 3.29217353 28.40123425 5.625 26.9375 C6.615 26.9375 7.605 26.9375 8.625 26.9375 C8.55634591 30.37020443 8.43845915 32.98917789 6.140625 35.66796875 C-0.58078499 41.48457355 -7.11953212 43.40125632 -16 43.28125 C-21.77860265 42.4448733 -26.14888095 39.41513065 -29.8125 35 C-33.31046707 28.14398455 -34.90880747 21.34465671 -32.7578125 13.76171875 C-29.92285588 7.30153 -24.81269802 2.73447851 -18.625 -0.5 C-12.36097798 -1.58415766 -6.10663521 -1.92245923 0 0 Z " fill="#060606" transform="translate(305.375,212.0625)"/>
<path d="M0 0 C1.41493551 -0.10884119 2.83232943 -0.18597617 4.25 -0.25 C5.03890625 -0.29640625 5.8278125 -0.3428125 6.640625 -0.390625 C9.9556645 0.1582226 11.02292394 1.31682535 13 4 C13.609375 7.015625 13.609375 7.015625 13.75 10.25 C13.80671875 11.32765625 13.8634375 12.4053125 13.921875 13.515625 C13.94765625 14.33546875 13.9734375 15.1553125 14 16 C14.81984375 16.02578125 15.6396875 16.0515625 16.484375 16.078125 C17.56203125 16.13484375 18.6396875 16.1915625 19.75 16.25 C20.81734375 16.29640625 21.8846875 16.3428125 22.984375 16.390625 C26.59177538 17.11958155 27.82266839 18.06917655 30 21 C30.49609375 23 30.49609375 23 30.4375 25 C30.43621094 25.66 30.43492187 26.32 30.43359375 27 C29.83586323 29.75709932 29.0546619 31.04722216 27 33 C23.86328125 33.609375 23.86328125 33.609375 20.3125 33.75 C19.13300781 33.80671875 17.95351563 33.8634375 16.73828125 33.921875 C15.83464844 33.94765625 14.93101562 33.9734375 14 34 C13.96132813 35.22976562 13.96132813 35.22976562 13.921875 36.484375 C13.83679688 38.10085937 13.83679688 38.10085937 13.75 39.75 C13.70359375 40.81734375 13.6571875 41.8846875 13.609375 42.984375 C12.87802141 46.60363762 11.95522037 47.83008294 9 50 C6.78125 50.53125 6.78125 50.53125 4.5 50.5 C3.37078125 50.51546875 3.37078125 50.51546875 2.21875 50.53125 C-0.92455684 49.77862724 -2.09549692 48.59081049 -4 46 C-4.390625 42.984375 -4.390625 42.984375 -4.25 39.75 C-4.21390625 38.67234375 -4.1778125 37.5946875 -4.140625 36.484375 C-4.09421875 35.66453125 -4.0478125 34.8446875 -4 34 C-4.90363281 33.95101562 -5.80726563 33.90203125 -6.73828125 33.8515625 C-7.91777344 33.77679688 -9.09726562 33.70203125 -10.3125 33.625 C-11.48425781 33.55539063 -12.65601563 33.48578125 -13.86328125 33.4140625 C-17 33 -17 33 -20 31 C-20.5 28.5625 -20.5 28.5625 -20 26 C-17.5 24.1875 -17.5 24.1875 -15 23 C-15.33 21.02 -15.66 19.04 -16 17 C-12.04 16.67 -8.08 16.34 -4 16 C-4 16.66 -4 17.32 -4 18 C-0.90130873 17.33059363 -0.90130873 17.33059363 0.1875 15 C1.54993333 9.96947693 1.65189223 4.95567668 0 0 Z " fill="#0E0E0E" transform="translate(346,206)"/>
<path d="M0 0 C3.3 0 6.6 0 10 0 C11.38701233 3.3017084 12.46242873 6.51893957 13.296875 10 C13.53059814 10.95986816 13.76432129 11.91973633 14.00512695 12.90869141 C14.25093506 13.92882324 14.49674316 14.94895508 14.75 16 C16.98587251 25.14034174 19.40709935 34.20121581 22.08300781 43.22265625 C23.3316213 47.46964091 24.39500505 51.60133086 25 56 C22.36 56 19.72 56 17 56 C16.49193553 54.27318563 15.99389533 52.54342021 15.5 50.8125 C15.2215625 49.84957031 14.943125 48.88664062 14.65625 47.89453125 C14 45 14 45 14 40 C8.06 40 2.12 40 -4 40 C-4.12375 41.340625 -4.2475 42.68125 -4.375 44.0625 C-4.83120715 48.24109306 -5.72374319 52.00106201 -7 56 C-9.64 56 -12.28 56 -15 56 C-12.33311025 44.22992793 -9.31426877 32.60335745 -6 21 C-5.44921709 19.06510464 -4.89843591 17.13020878 -4.34765625 15.1953125 C-2.90355494 10.12873405 -1.45326574 5.06395692 0 0 Z " fill="#A0A7AC" transform="translate(394,203)"/>
<path d="M0 0 C10.89 0 21.78 0 33 0 C33 2.31 33 4.62 33 7 C28.71 7 24.42 7 20 7 C20 21.19 20 35.38 20 50 C23.96 50 27.92 50 32 50 C32 51.98 32 53.96 32 56 C21.77 56 11.54 56 1 56 C1 54.02 1 52.04 1 50 C4.96 50 8.92 50 13 50 C13 35.81 13 21.62 13 7 C8.71 7 4.42 7 0 7 C0 4.69 0 2.38 0 0 Z " fill="#9EA5AA" transform="translate(429,203)"/>
<path d="M0 0 C0.495 0.7425 0.99 1.485 1.5 2.25 C4.64594733 5.71054206 7.79458968 7.10078243 12 9 C13.81714698 9.86530809 15.6296342 10.7404648 17.4375 11.625 C18.70400391 12.23214844 18.70400391 12.23214844 19.99609375 12.8515625 C22 14 22 14 23 16 C23.039992 17.99960012 23.04346799 20.00047242 23 22 C20.3125 22.3125 20.3125 22.3125 17 22 C14.15594992 19.62995827 12.15980313 17.23197228 10.0625 14.1875 C8.17973524 11.72122527 8.17973524 11.72122527 5.23828125 11.67578125 C1.51424917 12.04863368 -0.64143691 13.14734847 -3.875 15 C-9.0832596 17.72015539 -12.17959758 19.00351766 -18 18 C-21.75212276 15.98497111 -23.63644095 14.54533858 -26 11 C-26 10.01 -26 9.02 -26 8 C-17.31008699 7.20354316 -8.72542301 6.87147495 0 7 C0 4.69 0 2.38 0 0 Z " fill="#EBEBEB" transform="translate(137,226)"/>
<path d="M0 0 C2.25 0 2.25 0 5 1 C6.1953125 2.59375 6.1953125 2.59375 7.375 4.5 C9.43873738 7.6906035 9.75498974 7.92940382 13.6875 9.0625 C17.08086928 9.38155851 17.08086928 9.38155851 19 7 C19.39764263 5.01178687 19.73775349 3.01055661 20 1 C21.32 1 22.64 1 24 1 C24 9.25 24 17.5 24 26 C23.34 26.33 22.68 26.66 22 27 C21.773125 25.9275 21.54625 24.855 21.3125 23.75 C19.44215679 18.40616225 16.4775807 16.77899663 11.5546875 14.18359375 C10.33108167 13.5953721 9.10445251 13.01340144 7.875 12.4375 C-0.00283458 8.74425323 -0.00283458 8.74425323 -2 6 C-1.57894737 1.57894737 -1.57894737 1.57894737 0 0 Z " fill="#ECECEC" transform="translate(155,217)"/>
<path d="M0 0 C2.57449581 2.57449581 2.2763761 4.41337147 2.36328125 7.9296875 C1.8647776 10.7706223 1.10630873 12.01504239 -1 14 C-4.13671875 14.609375 -4.13671875 14.609375 -7.6875 14.75 C-8.86699219 14.80671875 -10.04648437 14.8634375 -11.26171875 14.921875 C-12.16535156 14.94765625 -13.06898438 14.9734375 -14 15 C-14.02578125 15.81984375 -14.0515625 16.6396875 -14.078125 17.484375 C-14.13484375 18.56203125 -14.1915625 19.6396875 -14.25 20.75 C-14.29640625 21.81734375 -14.3428125 22.8846875 -14.390625 23.984375 C-15.11101637 27.54938871 -16.15596604 28.79747746 -19 31 C-19.66 31 -20.32 31 -21 31 C-21.08139142 28.60347472 -21.14067009 26.20974564 -21.1875 23.8125 C-21.22520508 22.80219727 -21.22520508 22.80219727 -21.26367188 21.77148438 C-21.32943154 17.27790753 -20.7097387 14.58892752 -18 11 C-15.69610176 8.69610176 -14.87145788 8.67058277 -11.75 8.1875 C-6.89295653 7.20825736 -4.4836207 5.4836207 -1 2 C-0.67 1.34 -0.34 0.68 0 0 Z " fill="#505050" transform="translate(374,225)"/>
<path d="M0 0 C4.29296875 0.06835938 4.29296875 0.06835938 6.75 1.875 C8.01947364 5.41139084 7.59007399 7.7095571 6.625 11.3125 C4.35966753 14.18192113 3.10777163 15.15157612 -0.375 16.3125 C-6.56830855 16.75487918 -6.56830855 16.75487918 -9.3125 15.25 C-11.04138145 12.09733383 -10.86082979 9.83476599 -10.375 6.3125 C-7.9375 3.4375 -7.9375 3.4375 -5.375 1.3125 C-3.79602167 -0.26647833 -2.18137428 0.06706491 0 0 Z " fill="#070707" transform="translate(59.375,190.6875)"/>
<path d="M0 0 C0.99 0.495 0.99 0.495 2 1 C2 2.32 2 3.64 2 5 C3.65 5 5.3 5 7 5 C7.05793591 9.43744539 7.09357467 13.87479389 7.125 18.3125 C7.14175781 19.57513672 7.15851563 20.83777344 7.17578125 22.13867188 C7.18222656 23.34716797 7.18867187 24.55566406 7.1953125 25.80078125 C7.20578613 26.91622314 7.21625977 28.03166504 7.22705078 29.1809082 C7 32 7 32 5 35 C1.125 33.25 1.125 33.25 0 31 C-0.08586809 28.67583704 -0.10711043 26.34916693 -0.09765625 24.0234375 C-0.09553383 22.99556625 -0.09553383 22.99556625 -0.09336853 21.94692993 C-0.08776675 19.75624239 -0.07521406 17.5656567 -0.0625 15.375 C-0.05748522 13.89062648 -0.05292228 12.40625135 -0.04882812 10.921875 C-0.03779677 7.28121685 -0.02053099 3.64061836 0 0 Z " fill="#EEEEEE" transform="translate(66,213)"/>
<path d="M0 0 C0.66 0 1.32 0 2 0 C3.98 8.91 5.96 17.82 8 27 C3.38 27 -1.24 27 -6 27 C-4.02 18.09 -2.04 9.18 0 0 Z " fill="#F8F8F8" transform="translate(398,210)"/>
<path d="M0 0 C0.33 0 0.66 0 1 0 C1.01458252 0.70084717 1.02916504 1.40169434 1.04418945 2.1237793 C1.11885487 5.31223009 1.21545475 8.49965513 1.3125 11.6875 C1.33505859 12.79029297 1.35761719 13.89308594 1.38085938 15.02929688 C1.41630859 16.09599609 1.45175781 17.16269531 1.48828125 18.26171875 C1.51446533 19.24100342 1.54064941 20.22028809 1.56762695 21.22924805 C2.11453241 24.7339516 3.47158886 27.47158886 6 30 C6.25201884 33.61805871 6.18522535 37.2492008 6.1875 40.875 C6.19974609 41.89464844 6.21199219 42.91429687 6.22460938 43.96484375 C6.22750977 45.43244141 6.22750977 45.43244141 6.23046875 46.9296875 C6.23457764 47.82929199 6.23868652 48.72889648 6.24291992 49.65576172 C6 52 6 52 4 55 C3.34 55 2.68 55 2 55 C0.13768958 51.82813997 -0.24516558 49.52344627 -0.22705078 45.86425781 C-0.22689972 44.84350159 -0.22674866 43.82274536 -0.22659302 42.77105713 C-0.21627045 41.67613953 -0.20594788 40.58122192 -0.1953125 39.453125 C-0.1924826 38.3267865 -0.18965271 37.200448 -0.18673706 36.03997803 C-0.17554374 32.44321054 -0.15044037 28.84669221 -0.125 25.25 C-0.11496912 22.81120151 -0.10584346 20.37239912 -0.09765625 17.93359375 C-0.07560716 11.95564418 -0.04213784 5.97783989 0 0 Z " fill="#E5E5E5" transform="translate(44,193)"/>
<path d="M0 0 C0.33 0.99 0.66 1.98 1 3 C-3.35119942 7.44913638 -6.76140006 9.66451924 -12.984375 10.48046875 C-15.4737354 11.12210622 -16.41567076 12.00050015 -18 14 C-19.18695553 17.56086658 -19.35095418 20.97331024 -19.5625 24.6875 C-19.62727539 25.7403418 -19.62727539 25.7403418 -19.69335938 26.81445312 C-19.7991736 28.54275206 -19.90006581 30.2713511 -20 32 C-22.31 32 -24.62 32 -27 32 C-26.34 31.67 -25.68 31.34 -25 31 C-24.48986927 27.23259013 -24.15973847 23.49049548 -23.87695312 19.70117188 C-23.18552923 12.02076047 -23.18552923 12.02076047 -20 9 C-16.63445177 7.27407783 -14.87180591 7 -11 7 C-11 6.34 -11 5.68 -11 5 C-9.73160474 4.49384702 -8.46016898 3.99530901 -7.1875 3.5 C-6.12595703 3.08234375 -6.12595703 3.08234375 -5.04296875 2.65625 C-3 2 -3 2 0 2 C0 1.34 0 0.68 0 0 Z " fill="#333333" transform="translate(373,224)"/>
<path d="M0 0 C1.9375 1.6875 1.9375 1.6875 3 4 C3 5.65 3 7.3 3 9 C-1.62 9 -6.24 9 -11 9 C-11 4 -11 4 -9.4375 1.6875 C-6.08673477 -0.63226055 -3.98782145 -0.58004676 0 0 Z " fill="#EBEBEB" transform="translate(121,218)"/>
<path d="M0 0 C1.9375 1.125 1.9375 1.125 3 3 C3 4.98 3 6.96 3 9 C-1.29 9 -5.58 9 -10 9 C-10 3 -10 3 -8.9375 1.125 C-5.8930714 -0.64273274 -3.4368988 -0.36823916 0 0 Z " fill="#F1F1F1" transform="translate(298,218)"/>
<path d="M0 0 C1.94734511 1.62278759 2.90721805 2.52244586 3.3984375 5.05078125 C3.34659439 10.05364158 2.96609128 13.76272675 0 18 C-2.109375 18.65625 -2.109375 18.65625 -4 19 C-3.91277063 16.58164103 -3.80588627 14.16686684 -3.6875 11.75 C-3.66494141 11.06808594 -3.64238281 10.38617188 -3.61914062 9.68359375 C-3.39833396 5.54848704 -2.90407 3.02085566 0 0 Z " fill="#838383" transform="translate(345,206)"/>
<path d="M0 0 C1.48828125 1.14453125 1.48828125 1.14453125 3 3 C3.29296875 5.69921875 3.29296875 5.69921875 3.1875 8.6875 C3.16042969 9.68136719 3.13335937 10.67523438 3.10546875 11.69921875 C3.07066406 12.45847656 3.03585937 13.21773437 3 14 C0.35261084 15.4606285 -0.89448334 16 -4 16 C-4.54330269 9.34454208 -3.77304004 5.54165256 0 0 Z " fill="#353535" transform="translate(356,207)"/>
<path d="M0 0 C0.99 0 1.98 0 3 0 C3.10823773 2.24893954 3.18569645 4.49937575 3.25 6.75 C3.29640625 8.00296875 3.3428125 9.2559375 3.390625 10.546875 C3 14 3 14 1.046875 16.453125 C-1 18 -1 18 -2 18 C-1.85980308 15.18711295 -1.71312045 12.37483115 -1.5625 9.5625 C-1.52318359 8.76005859 -1.48386719 7.95761719 -1.44335938 7.13085938 C-1.11328125 1.11328125 -1.11328125 1.11328125 0 0 Z " fill="#999999" transform="translate(356,238)"/>
<path d="M0 0 C4.29 0 8.58 0 13 0 C13.33 0.99 13.66 1.98 14 3 C10.08488397 5.61007735 6.5480334 5.22006613 2 5 C1.34 4.67 0.68 4.34 0 4 C0 2.68 0 1.36 0 0 Z " fill="#030303" transform="translate(359,223)"/>
<path d="M0 0 C0.36923077 7.38461538 0.36923077 7.38461538 -1.5 10.5 C-1.995 10.995 -2.49 11.49 -3 12 C-4.32 11.34 -5.64 10.68 -7 10 C-7.375 7.8125 -7.375 7.8125 -7 5 C-2.5 0 -2.5 0 0 0 Z " fill="#7A7A7A" transform="translate(376,227)"/>
<path d="M0 0 C0.94875 0.04125 1.8975 0.0825 2.875 0.125 C0.125 5 0.125 5 -2.125 6.125 C-2.125 5.465 -2.125 4.805 -2.125 4.125 C-3.115 4.455 -4.105 4.785 -5.125 5.125 C-5.785 10.735 -6.445 16.345 -7.125 22.125 C-7.455 22.125 -7.785 22.125 -8.125 22.125 C-8.20639142 19.72847472 -8.26567009 17.33474564 -8.3125 14.9375 C-8.35020508 13.92719727 -8.35020508 13.92719727 -8.38867188 12.89648438 C-8.45443154 8.40290753 -7.8347387 5.71392752 -5.125 2.125 C-3.125 0.125 -3.125 0.125 0 0 Z " fill="#646464" transform="translate(361.125,233.875)"/>
<path d="M0 0 C2 2 2 2 2.1953125 4.6015625 C2.17210937 5.59929687 2.14890625 6.59703125 2.125 7.625 C2.10695313 8.62789062 2.08890625 9.63078125 2.0703125 10.6640625 C2.03550781 11.82035156 2.03550781 11.82035156 2 13 C1.01 13 0.02 13 -1 13 C-2.24270671 10.51458657 -1.95365685 9.23584621 -1.625 6.5 C-1.53476562 5.7059375 -1.44453125 4.911875 -1.3515625 4.09375 C-1 2 -1 2 0 0 Z " fill="#757575" transform="translate(357,208)"/>
<path d="M0 0 C0.66 0 1.32 0 2 0 C4 3 4 3 3.75 5.0625 C3 7 3 7 1 9 C0.01 9 -0.98 9 -2 9 C-2.125 5.625 -2.125 5.625 -2 2 C-1.34 1.34 -0.68 0.68 0 0 Z " fill="#909090" transform="translate(328,223)"/>
<path d="M0 0 C0.33 0 0.66 0 1 0 C1.49230769 7.38461538 1.49230769 7.38461538 -1 10.5 C-1.66 10.995 -2.32 11.49 -3 12 C-2.49202991 7.6822542 -1.80317221 3.96697886 0 0 Z " fill="#A3A3A3" transform="translate(375,227)"/>
<path d="M0 0 C-1.6396875 0.61875 -1.6396875 0.61875 -3.3125 1.25 C-6.51015942 2.60285591 -8.20653426 3.94055844 -10 7 C-10 5.02 -10 3.04 -10 1 C-3.71428571 -1.42857143 -3.71428571 -1.42857143 0 0 Z " fill="#2E2E2E" transform="translate(362,233)"/>
<path d="M0 0 C0.33 0 0.66 0 1 0 C1 4.95 1 9.9 1 15 C-0.32 15.33 -1.64 15.66 -3 16 C-2.68289063 15.46890625 -2.36578125 14.9378125 -2.0390625 14.390625 C-0.7629651 11.45464152 -0.58292979 8.93825671 -0.375 5.75 C-0.30023438 4.67234375 -0.22546875 3.5946875 -0.1484375 2.484375 C-0.09945313 1.66453125 -0.05046875 0.8446875 0 0 Z " fill="#B4B4B4" transform="translate(344,209)"/>
</svg>
